/* XPM */
static char *_f94cf6594474ca7c0bdc14bd12e273d[] = {
/* columns rows colors chars-per-pixel */
"32 32 59 1 ",
"  c #1797CD",
". c #1C94CB",
"X c #169ACE",
"o c #1898CE",
"O c #139DD1",
"+ c #1F9DD0",
"@ c #238DC6",
"# c #218FC8",
"$ c #2091C9",
"% c #0CA4D5",
"& c #08A8D7",
"* c #05ABDA",
"= c #08A8D8",
"- c #10A0D3",
"; c #1CA5D5",
": c #21A1D2",
"> c #2BA6D4",
", c #2FAAD6",
"< c #33A3D3",
"1 c #3CA5D3",
"2 c #35A8D5",
"3 c #3DAAD6",
"4 c #3AB3DC",
"5 c #3EB8DE",
"6 c #47ABD7",
"7 c #49AFD8",
"8 c #56B4DB",
"9 c #59B4DB",
"0 c #51B8DE",
"q c #58BADE",
"w c #69BBDE",
"e c #70BCDF",
"r c #5FBFE0",
"t c #6CBEE0",
"y c #6BC1E2",
"u c #79C6E4",
"i c #7EC9E6",
"p c #82C6E3",
"a c #85CAE6",
"s c #8ACBE5",
"d c #8ACEE8",
"f c #8CD2EA",
"g c #93D6EC",
"h c #9AD3EA",
"j c #99D9ED",
"k c #A7D6EB",
"l c #A5DAED",
"z c #ADDBED",
"x c #B3DCEE",
"c c #B1E0F0",
"v c #BBE1F1",
"b c #C7E6F3",
"n c #CAEAF5",
"m c #D4EDF6",
"M c #DFF2F8",
"N c #ECF7FB",
"B c #F3FAFC",
"V c #FEFEFF",
"C c None",
/* pixels */
"CCC-----%-%%%%%&%&&&===******CCC",
"CCX--X-----%%%%%%&&&=&=*******CC",
"CXOOOOO---O%-%%%%%%&&&&&*******C",
"XXXOOOO----%-%%%%%&%&&&&=*=*****",
"XXXXOOOO-O%--%-%%%%%&&&&********",
"XXXOOXXOOOO----%%%%%&%&&=*******",
"oXoXXOOOOOO-----%%%%%&%&==******",
" oXXoXOOOOOO----%%%%%%%&==******",
" oooXXXOXqh,O----%%%4j5======***",
".o.XoXXOXBVlO---%---nVm%%%%%====",
" o  XXXXXvVyOOO--%-%fVg%====%*=*",
".. ..XoXXX:OOOO-OO--%;%%;=%=*%==",
".. .ooooXXXOOO>mb;O%---%%%%%%*%*",
".... .ooo+3XXXyVV0OOO4%-%%%%%%%=",
"......ooomVsOX:zlXO%zVc%%%%%=%==",
"$.... .o+BVzXXOXOOOOnVmO%%%%%%%%",
"#.#.... .aV3XXXXOOOOrVr-%--%%%%%",
".#.......<b XoXauOOO-M----%-%%%%",
"##...... 1m ootVV8XOXNX%----%%%%",
"#$#$.....kV8oo7VV2XOuViO-----%%%",
"###$$...$VVx.ooxhXXXmVMOO%-O--%%",
"###$#..#.xBw .opwXoOaBfXOOO%--%-",
"#####$#......  xhooXXX--OO-OO%-%",
"@###@.#.#.... 6VB<oXXXXXOOOOOO--",
"@@@@####..$...eVV9ooXXXX OOOO-%O",
"@@@@####@..#..$sp oooXXX OXOOOO-",
"@@@@####@........ oooXoXOXOOOO-O",
"@@@@@###.#@#..#.... oooo OXOOOOO",
"@@@@@@@###..#..$... ooooXXXXOOOO",
"C@@@@@@@@#@###.......o  XXXXXOOC",
"CC@@@@@@@###$.$.... ..o.XXoXXXCC",
"CCC@@@@@@######.$$... .   XXXCCC"
};
