/* XPM */
static char *_69e387277f04939cd91d816044e2730[] = {
/* columns rows colors chars-per-pixel */
"16 16 127 2 ",
"   c #1F90C8",
".  c #1F90C9",
"X  c #1E91C9",
"o  c #1E92C9",
"O  c #1C92CA",
"+  c #1D93CA",
"@  c #1D93CB",
"#  c #1E92CA",
"$  c #1F92CA",
"%  c #1B94CB",
"&  c #1A95CB",
"*  c #1C94CB",
"=  c #1A95CC",
"-  c #1B95CC",
";  c #1996CC",
":  c #1997CD",
">  c #1B96CC",
",  c #1A97CD",
"<  c #1C95CC",
"1  c #1798CD",
"2  c #1699CE",
"3  c #1799CE",
"4  c #1799CF",
"5  c #159ACF",
"6  c #169ACF",
"7  c #179ACF",
"8  c #169BCF",
"9  c #1898CD",
"0  c #1898CE",
"q  c #149BD0",
"w  c #169BD0",
"e  c #129CD0",
"r  c #129DD1",
"t  c #139DD1",
"y  c #119ED1",
"u  c #109FD2",
"i  c #119FD2",
"p  c #129ED2",
"a  c #139ED2",
"s  c #129FD2",
"d  c #149CD0",
"f  c #189AD0",
"g  c #1F9ED0",
"h  c #268BC4",
"j  c #258BC6",
"k  c #268BC6",
"l  c #238CC6",
"z  c #238DC6",
"x  c #208FC7",
"c  c #218FC7",
"v  c #228EC7",
"b  c #258CC6",
"n  c #248DC6",
"m  c #218FC8",
"M  c #2090C9",
"N  c #2091C9",
"B  c #0FA0D3",
"V  c #0FA1D3",
"C  c #0DA2D4",
"Z  c #0CA3D5",
"A  c #0DA3D5",
"S  c #0EA2D4",
"D  c #0EA3D4",
"F  c #0BA4D5",
"G  c #0BA4D6",
"H  c #0BA5D6",
"J  c #09A7D7",
"K  c #0AA6D6",
"L  c #0AA6D7",
"P  c #0DA4D5",
"I  c #0CA5D6",
"U  c #09A7D8",
"Y  c #07A8D8",
"T  c #06A9D9",
"R  c #06AAD9",
"E  c #07AAD9",
"W  c #05ABDA",
"Q  c #03ACDA",
"!  c #04ACDB",
"~  c #03ADDC",
"^  c #03AFDC",
"/  c #09A8D8",
"(  c #08A9D8",
")  c #10A0D2",
"_  c #10A0D3",
"`  c #11A0D3",
"'  c #10A1D4",
"]  c #1AA5D6",
"[  c #2CA5D4",
"{  c #2CAAD7",
"}  c #2DAFDA",
"|  c #32A7D5",
" . c #36ADD8",
".. c #38ACD8",
"X. c #3DADD8",
"o. c #3FACD8",
"O. c #45AAD6",
"+. c #50AED8",
"@. c #57B5DC",
"#. c #5DBADE",
"$. c #64B9DD",
"%. c #49BBE0",
"&. c #63BEE0",
"*. c #67BEE0",
"=. c #68C4E3",
"-. c #6CC6E5",
";. c #7AC0E0",
":. c #7DC3E2",
">. c #80C6E4",
",. c #81C6E4",
"<. c #87C7E4",
"1. c #8CCBE6",
"2. c #90CDE7",
"3. c #8DD0E8",
"4. c #9AD1E9",
"5. c #99D4EB",
"6. c #9BD5EB",
"7. c #9ED7EC",
"8. c #A1D6EB",
"9. c #A9DBEE",
"0. c #ADDBED",
"q. c #A8DEF0",
"w. c #C3E3F1",
"e. c #CCE8F4",
"r. c #D3ECF6",
"t. c #DEF1F8",
"y. c None",
/* pixels */
"y.a a V V V F F / / R R R ~ ^ y.",
"8 d a a a V V F F F / R R R ! ^ ",
"8 8 e a u V V V I F F / Y R R ! ",
": 8 8 q e a V V C I F F F Y R ! ",
": 1 8 8 #.5.a u ' C q.%.U R R R ",
": : : 8 O.*.a a ` ' -.} F F F / ",
"@ : : 1 8 g d 5.3.` ] C I F U / ",
"@ O O : :.e.q X...` t.=.C F F F ",
"  < < % O.2.8 | [ d 7.{ C C I I ",
"    < % +.5.: 0.8.d 9. .` V C C ",
"c c   @ ;.w., $.@.8 r.$.a u ' C ",
"c c @   @ O % 1.>.8 8 q e a ` ` ",
"x N v @ N @ @ <.:.: 8 8 q a u a ",
"h h h x x @ @ % : : : 1 8 q a a ",
"j j x v x v @ @ @ O : 8 8 8 q a ",
"y.j j j x x x @ @ % O : : 8 8 y."
};
