/* XPM */
static char *_64ee861a9594528e81951ec52d3a789[] = {
/* columns rows colors chars-per-pixel */
"64 64 87 1 ",
"  c #1F8FC8",
". c #1C94CB",
"X c #169ACF",
"o c #1898CE",
"O c #139DD1",
"+ c #199DD0",
"@ c #238DC6",
"# c #298BC6",
"$ c #218FC8",
"% c #2090C9",
"& c #239ACE",
"* c #2B9BCE",
"= c #259ED0",
"- c #2B9ED0",
"; c #349FD0",
": c #0CA4D5",
"> c #07A8D7",
", c #08A8D7",
"< c #09A7D8",
"1 c #05ABDA",
"2 c #08A8D8",
"3 c #10A0D3",
"4 c #1CA2D3",
"5 c #15A8D7",
"6 c #1FA8D6",
"7 c #04B0DE",
"8 c #25A2D3",
"9 c #2CA4D3",
"0 c #24A9D6",
"q c #23ACD8",
"w c #2BAEDA",
"e c #34A3D3",
"r c #39A4D3",
"t c #35A8D6",
"y c #3BAED9",
"u c #3FB2DB",
"i c #45AAD6",
"p c #4BACD7",
"a c #41ADD8",
"s c #49AFD8",
"d c #44B3DC",
"f c #4EB5DC",
"g c #53B3DA",
"h c #5CB6DB",
"j c #53B9DD",
"k c #5DBCDF",
"l c #63BCDF",
"z c #6FBDDF",
"x c #70BDDF",
"c c #4EBDE1",
"v c #64BFE1",
"b c #6CBDE0",
"n c #62C0E1",
"m c #6EC0E1",
"M c #75C2E2",
"N c #7BC5E3",
"B c #74C9E5",
"V c #7CC9E6",
"C c #84C7E4",
"Z c #82C9E6",
"A c #8ECCE6",
"S c #91CDE7",
"D c #8ED0E9",
"F c #95D2EA",
"G c #9CD3EA",
"H c #9CD8EC",
"J c #A3D7EB",
"K c #A3DAEE",
"L c #ACDBEE",
"P c #B2DCEE",
"I c #A9DFF0",
"U c #B1DFF0",
"Y c #B6E0F0",
"T c #BDE1F0",
"R c #C3E5F2",
"E c #CEE7F3",
"W c #C6E9F4",
"Q c #CDECF6",
"! c #D4EDF6",
"~ c #DBEEF7",
"^ c #D6EFF8",
"/ c #DEF1F8",
"( c #E5F3F9",
") c #EBF6FB",
"_ c #F5FAFD",
"` c #FFFFFF",
"' c None",
/* pixels */
"'''''''O33O33333O:::O:::::::>:::>>>>:>>>>1>21111111171777'''''''",
"'''''OOOOO333333::O:::::::::::>::::>>>>><121<11111111111177'''''",
"'''OOOOOOOOO3333:OO:O:O3:::::>>:>:>::<><>>>1>1111117111771777'''",
"''OOXOOOO3O3O333OO::::::O::::::::::>><<<222>1>2211117117111177''",
"''OOXOOOOOOO33O3:O:O:OO::::::::::::<<<:><>2>21>111111111111777''",
"'+XXOXOOOOOOOOO3OOO:O:::O::::::::<:><:<<<<:>2>1>11>111111711177'",
"'XXXXOOXOOOOOO3OO:O::O:O::::3:3:<::::<:<<:2<22>><11111111171177'",
"+XXXOXXOOOOOOO3OOO:OO:O::O:O::::::::<>::<<<<<2><<>1>111117111177",
"XXoOXOXOOXOOOOOOOO::OOO:33:::33:::::>:<><<:>><>>>211211111711117",
"XoXXooOXXOXOOOOOOOOOO::O3333:::::::::>:::<:>>><<122>112111117171",
"XoXXOoXOOOOOOOOOO:OOOO:O3::333::::::::>:<><<:<<<222>222111111111",
"oXoXXXXOXXXOOOOOOOOO:OO:33333:3:3:::::::::::>><<2222111111111711",
"oXoXoXXXXXXOOOOOOOOOO:O:O33333:3:::::::::::><<<<<<2212>2>1111711",
"ooooXXXXXOXOXXXOOOOOOOOO33O::33::3::3::::<:><:<:<<<22>>1>1>11111",
"ooooXoXXXXXXXOOOOOOOOO:OOO333:3333:3::::::::::<<<<>:22211>111111",
".ooooXXXXXXOXOXXOOOOOOOOO:O333333:3::3:::::><<:<:<>>222>>>111111",
"oooooXXXXXXXXXXOOOO9kuOOO33O3333333:3:3<:5cc5:<:<<:>222>>1>121>1",
".oooo.XXX.XXXOXOOXv_``JO33O3O3333:33:3:36!``/w:<:>:<2>:>>>221111",
"ooooXX.XXXXXXXOXXX)````jOOOO3333333::33<H````I<::<>::>2>22212121",
"..o...ooX.XXXXXXOe`````V3OO3O3O333333::3W````!::::<>:<2:222>2212",
"...oXXoXXX.XXXXXX+)````fOOOO3O3333333:3:F````K:::::2:>,,>>><2>11",
"Xo.o..o.X.XXXXXXXOh)``FOXOOOO3OO3333333:6Q``!q:<:2<:2:2:2:<>2><1",
".....o.X.XXXXXX.XXX8ftOXOOO3OOO33333333:3:uu3:::::<:::,<<<<<2222",
"...X..X.XX.X.XXXXXXXXXOOOOOOOOOOO33333333:3:::3:::::<::2,:<<<222",
"......oo.ooo.XXXXXXXXXOOOXOOO4F)~N333333:::O:3:::::,:,:2:2,:>2:>",
"..X..o.o.oo.XXXXXXXXXXXXXOXOOD````lO33O333O:::3::::::::::<,:222>",
".... o.o.oooo..XoXXXXXOXXOOOO/````P3O3333333:O3::3:::::,::>2,222",
"....o...o.o.X.XXooXsCl+XOXXOXQ````J33O3330BB0:3::::::::::<:>:2:<",
"... .oo....oo.X.oob```PXXXOOXv```_tOO33O0(``)w3:33:::::::::2,2<2",
".. .o ...oX..XX.oo_````gXXXXXOfJGtOOOO33H````L:33:3::::::<::::<:",
" ... o o..oooX.Xo;`````NXXOOXXOOOOOOO3OOR````Q33:3:::::::::<:<<:",
".  .o o ......X.oo(````sXXXXXOOXOOOOOOO3D````H3O:3:33::::<:>:::>",
"..%............oooh```GoXXoXXXXOOOOOOOOO4(``(633333:::::::>3:::>",
"% %.%%....o..o.o ooP`)=ooXXXX+OXOXOOOOOOOj``nO3333333:3:3:3>>:::",
"%. . ........o..oooh`JoooX+XXXXarOOXXOOOOO)`3333:3:3:3:3:3:3::::",
"%%%.%. .%.....o..o.;`NoooooXO=!``P+OOOOOOORQO3O33333333:3>3>>:::",
"%% .%.%.........o.oi`AooooooXJ````NOXOOOOO!(33O33333333::3::::::",
"%%%%. . %.%....o%o.x`To.ooooX~````LOOXOXO4``0OO333O3333:::3:::::",
"%%% .% ..%......oo*(``gooooooR````GXOXOXOF``KOOO333333:333:3::::",
"%%%   .  ..% ...%%G```~.ooooop```)9XoOXOs````j3OO3O3333:3:33:3::",
"$%%%    .%... ...*`````z.oooooG``mXXXXOOP````ROOO:O:OOO:333::3::",
"@$ %%%%. .%.%....*`````x.ooooo-`)oXXXXXXY````ROOOOOOO:O:333:3::3",
"@$$$%%%%%%.%% ...oE```_r.oo..oo(TXoXXXXOM````ZOOOOOO:OOO3333:3::",
"$$$ %%% %  ....% .;E`)h.o..o.oo(TXoXXXXXXD_`GXOOOO:OOO:O333:33:3",
"@@@$%$% %%%%.% ..%..$o..o.oooo-`(+oXXXXXXXXOXOOOOOOO:OOOOO::33:3",
"@%@$@%$%%%%. .%....%o%...oo..oS``looXXXoXOOXXXXOOOOOOO:OO:OO3:O:",
"@%@%% $%% %  %.% ......oo%..oi_``)*ooXXXXXOXXXOOOOOOOOOOO::O:O:O",
"@@@@%@ @ %  .%% .%.%..%...oo T````SooooXXX+XXOOXXOOOOOOOOOOOO:O:",
"@@@%@ @     % %% ....%.....o.~````Lo.XXooXXXOXOOOOXOOOOOO3O:OO:O",
"@@@@@@ @@ @% %%%%%%....%.....P````CoXX.XXXXXXXXXXOOOXOOOOO3OO:O:",
"@@@@ @@@  %% %%%%.%%%.%......*~``Too.XXooXXXXXXXXOXOOOOOOOOOO:3O",
"@@@@@@@@@%@  %%%%%..%...%.....&gp..X.oX..oXXXXXXXXXOXOOOOO:O3OO3",
"@@@@@@@@@%%  %%%%% $ %. ...........o.XoXXXoXXXXXXXXOXOOOOOOOOO:O",
"@#@@@@@@@@@   % %% .%.%..%.%.......oo..XooX.XXXXXXXOXOXOOOOOOOOO",
"##@#@@@@@%@@%@%@$%%..% .%............X.X.XXoX..XXXXXXXOOOOOOOOO:",
"@@#@#@@@@@@%@@%%$$% %%%..%%..%.....o..X.XoX.XXXXXXXOXOXOXOOOOOOO",
"##@@#@#@@@@@@@%%%@%%  .%%.%...........oo.X..XXXXoOoOoOOoXOOOOOOO",
"'#@##@@@@@@@%@@%@%  %%   .  % .......o..X.XXX.X.ooooooOOXOXOXOO'",
"'###@#@@@@@@@@@@ %$%%%  %.%..%. ....o.o..X.X.X.XoooXXOOXXXOOXOO'",
"''@@@@#@@@@@@@@%@@$ %$% %%. %..%..........X..XXXooXooooXOXXOOO''",
"''###@#@@@@@@@@@$@ @$$%%%  ... ..  .....X..o.XXXooXooooOXXXOXO''",
"'''##@@@@#@#@@@@@@@%$ $$$ %%% .% .........X.....oooooOOoXXXOX'''",
"'''''#@##@@#@@%@@$$@@$$%%%% .$%. ...........X..XXo.Xooo+XOX'''''",
"'''''''@@#@@@@@@@@@$$@$$$% %$$. %.........X..oX..o.XoooX+'''''''"
};
