<?xml version="1.0" encoding="UTF-8"?>
<svg width="98px" height="98px" viewBox="0 0 98 98" version="1.1" xmlns="http://www.w3.org/2000/svg" xmlns:xlink="http://www.w3.org/1999/xlink">
    <!-- Generator: sketchtool 46.2 (44496) - http://www.bohemiancoding.com/sketch -->
    <title>F7980514-D0DF-49FC-B6B5-2CF7CFAE115D</title>
    <desc>Created with sketchtool.</desc>
    <defs>
        <circle id="path-1" cx="49" cy="49" r="49"/>
    </defs>
    <g id="Page-1" stroke="none" stroke-width="1" fill="none" fill-rule="evenodd">
        <g id="index-v.2" transform="translate(-1124.000000, -1205.000000)">
            <g id="community" transform="translate(1124.000000, 1205.000000)">
                <g id="Rectangle-Copy-3">
                    <mask id="mask-2" fill="white">
                        <use xlink:href="#path-1"/>
                    </mask>
                    <use id="Mask" fill="#51B3EF" xlink:href="#path-1"/>
                </g>
                <g id="Group-28" transform="translate(13.600000, 23.800000)">
                    <g id="Group" transform="translate(29.672727, 20.363636)">
                        <path d="M27.4884606,29.2722061 L27.4884606,35.3324751 L19.1380934,29.2727273 L14.6363636,29.2727273 L14.6363636,29.2727273 C6.55292321,29.2727273 9.89935945e-16,22.7198041 0,14.6363636 L0,14.6363636 L0,14.6363636 C-9.89935945e-16,6.55292321 6.55292321,3.26126076e-15 14.6363636,1.77635684e-15 L14.6363636,0 L27.3636364,0 L27.3636364,5.32907052e-15 C35.4470768,3.8441666e-15 42,6.55292321 42,14.6363636 L42,14.6363636 C42,22.6781551 35.5144291,29.2051604 27.4884606,29.2722061 Z" id="Combined-Shape" fill="#384C62"/>
                        <circle id="Oval" fill="#FFFFFF" opacity="0.699999988" cx="10.8181818" cy="14.6363636" r="3.18181818"/>
                        <circle id="Oval-Copy" fill="#FFFFFF" opacity="0.699999988" cx="21" cy="14.6363636" r="3.18181818"/>
                        <circle id="Oval-Copy-2" fill="#FFFFFF" opacity="0.699999988" cx="31.1818182" cy="14.6363636" r="3.18181818"/>
                    </g>
                    <g id="Group-Copy" transform="translate(20.627273, 18.000000) scale(-1, 1) translate(-20.627273, -18.000000) translate(0.127273, 0.000000)">
                        <path d="M27.4884606,29.2722061 L27.4884606,35.3324751 L19.1380934,29.2727273 L14.6363636,29.2727273 L14.6363636,29.2727273 C6.55292321,29.2727273 9.89935945e-16,22.7198041 0,14.6363636 L0,14.6363636 L0,14.6363636 C-9.89935945e-16,6.55292321 6.55292321,5.0376176e-15 14.6363636,3.55271368e-15 L14.6363636,0 L27.3636364,0 L27.3636364,7.10542736e-15 C35.4470768,5.62052344e-15 42,6.55292321 42,14.6363636 L42,14.6363636 L42,14.6363636 C42,22.6781551 35.5144291,29.2051604 27.4884606,29.2722061 Z" id="Combined-Shape" fill="#FFFFFF"/>
                        <circle id="Oval" fill="#384C62" cx="10.8181818" cy="14.6363636" r="3.18181818"/>
                        <circle id="Oval-Copy" fill="#384C62" cx="21" cy="14.6363636" r="3.18181818"/>
                        <circle id="Oval-Copy-2" fill="#384C62" cx="31.1818182" cy="14.6363636" r="3.18181818"/>
                    </g>
                </g>
            </g>
        </g>
    </g>
</svg>