<?xml version="1.0" encoding="UTF-8" standalone="no"?>
<svg
   xmlns:dc="http://purl.org/dc/elements/1.1/"
   xmlns:cc="http://creativecommons.org/ns#"
   xmlns:rdf="http://www.w3.org/1999/02/22-rdf-syntax-ns#"
   xmlns:svg="http://www.w3.org/2000/svg"
   xmlns="http://www.w3.org/2000/svg"
   xmlns:sodipodi="http://sodipodi.sourceforge.net/DTD/sodipodi-0.dtd"
   xmlns:inkscape="http://www.inkscape.org/namespaces/inkscape"
   id="Layer_1"
   style="enable-background:new 0 0 91 91;"
   version="1.1"
   viewBox="0 0 91 91"
   xml:space="preserve"
   sodipodi:docname="hourglass.svg"
   inkscape:version="0.92.2 (5c3e80d, 2017-08-06)"><metadata
     id="metadata19"><rdf:RDF><cc:Work
         rdf:about=""><dc:format>image/svg+xml</dc:format><dc:type
           rdf:resource="http://purl.org/dc/dcmitype/StillImage" /></cc:Work></rdf:RDF></metadata><defs
     id="defs17" /><sodipodi:namedview
     pagecolor="#ffffff"
     bordercolor="#666666"
     borderopacity="1"
     objecttolerance="10"
     gridtolerance="10"
     guidetolerance="10"
     inkscape:pageopacity="0"
     inkscape:pageshadow="2"
     inkscape:window-width="1920"
     inkscape:window-height="1045"
     id="namedview15"
     showgrid="false"
     inkscape:zoom="2.5934066"
     inkscape:cx="-15.038136"
     inkscape:cy="45.5"
     inkscape:window-x="0"
     inkscape:window-y="35"
     inkscape:window-maximized="0"
     inkscape:current-layer="Layer_1" /><g
     id="g12"
     style="opacity:1;fill-opacity:1;fill:#384c62"><path
       d="M63.1,35.5c4.8-4.3,7.2-10.2,7.3-18v-6.2h5.2V2.7H16v8.7h5.2v6.2c0.1,7.8,2.5,13.7,7.3,18c1.5,1.4,3,2.7,4.5,4.1   c1.2,1.1,2.3,2.1,3.5,3.2l0,0c0,0,0.1,0.1,0.1,0.1c0.2,0.2,0.5,0.5,0.7,0.7c0,0,0.1,0.1,0.1,0.1c0.2,0.2,0.3,0.4,0.5,0.7   c0,0,0,0.1,0.1,0.1c0.1,0.2,0.2,0.4,0.3,0.7c0,0,0,0.1,0,0.1c0.1,0.2,0.1,0.5,0.1,0.7c0,0.2,0,0.5-0.1,0.7c0,0,0,0.1,0,0.1   c-0.1,0.2-0.2,0.4-0.3,0.7c0,0,0,0.1-0.1,0.1c-0.1,0.2-0.3,0.4-0.4,0.6c0,0-0.1,0.1-0.1,0.1c-0.2,0.2-0.4,0.5-0.7,0.7   c0,0-0.1,0.1-0.1,0.1l0,0c-1.2,1.1-2.3,2.1-3.5,3.2c-1.5,1.4-3,2.8-4.5,4.1c-4.8,4.3-7.2,10.2-7.3,18v5.3H16v8.7h59.6v-8.7h-5.2   v-5.3c-0.1-7.8-2.5-13.7-7.3-18c-1.5-1.4-3-2.7-4.5-4.1c-1.2-1.1-2.3-2.1-3.5-3.2l0,0c-0.1,0-0.1-0.1-0.2-0.1   c-0.2-0.2-0.5-0.4-0.6-0.7c0-0.1-0.1-0.1-0.1-0.2c-0.2-0.2-0.3-0.4-0.4-0.6c0-0.1-0.1-0.1-0.1-0.2c-0.1-0.2-0.2-0.4-0.3-0.6   c0,0,0-0.1,0-0.1c-0.1-0.2-0.1-0.5-0.1-0.7c0-0.2,0-0.5,0.1-0.7c0,0,0-0.1,0-0.1c0.1-0.2,0.2-0.4,0.3-0.6c0,0,0-0.1,0.1-0.1   c0.1-0.2,0.3-0.4,0.5-0.6c0,0,0.1-0.1,0.1-0.1c0.2-0.2,0.4-0.5,0.7-0.7c0,0,0.1-0.1,0.1-0.1l0,0c1.2-1.1,2.3-2.1,3.5-3.2   C60.1,38.3,61.6,36.9,63.1,35.5z M52.8,40.6c-0.2,0.2-0.4,0.3-0.5,0.5c0,0,0,0-0.1,0.1c-1.3,1.3-2,2.7-2.2,4.1c0,0,0,0,0,0   c0,0.2,0,0.4,0,0.5c0,0.1,0,0.1,0,0.2c0,0,0,0,0,0s0,0,0,0c0,0.1,0,0.1,0,0.2c0,0.2,0,0.4,0,0.5c0,0,0,0,0,0   c0.2,1.4,0.9,2.8,2.2,4.1c0,0,0.1,0.1,0.1,0.1c0.2,0.2,0.3,0.3,0.5,0.5c1.2,1.1,2.4,2.2,3.6,3.3c1.5,1.4,3,2.8,4.6,4.1   c4.2,3.8,6.2,8.8,6.3,15.7v5.3H24.5v-5.3c0.1-6.9,2.1-11.9,6.3-15.7c1.5-1.4,3-2.8,4.6-4.1c1.2-1.1,2.4-2.2,3.6-3.3   c0.2-0.2,0.4-0.3,0.5-0.5c0,0,0,0,0.1-0.1c1.3-1.3,2-2.7,2.2-4.1c0,0,0,0,0,0c0-0.2,0-0.4,0-0.5c0-0.1,0-0.1,0-0.2c0,0,0,0,0,0   s0,0,0,0c0-0.1,0-0.1,0-0.2c0-0.2,0-0.4,0-0.5c0,0,0,0,0,0c-0.2-1.4-0.9-2.8-2.2-4.1c0,0-0.1-0.1-0.1-0.1c-0.2-0.2-0.3-0.3-0.5-0.5   c-1.2-1.1-2.4-2.2-3.6-3.3c-1.5-1.4-3-2.8-4.6-4.1c-4.2-3.8-6.2-8.8-6.3-15.7v-6.2h42.8v6.1c-0.1,6.9-2.1,11.9-6.3,15.7   c-1.5,1.4-3,2.8-4.6,4.1C55.2,38.4,54,39.5,52.8,40.6z"
       id="path2"
       style="fill-opacity:1;fill:#384c62" /><path
       d="M45.8,28.1c-6.1-2-11.2-0.4-14.2,1c0.4,0.5,0.9,1,1.4,1.5c1.5,1.4,3.1,2.8,4.6,4.2c1.2,1.1,2.4,2.2,3.5,3.2   c0.3,0.2,0.5,0.5,0.7,0.7c0.1,0.1,0.2,0.2,0.4,0.4c0.3,0.3,0.6,0.7,0.8,1c0,0,0.1,0.1,0.1,0.1c1.1,1.5,1.8,4.2,1.8,4.2   c1,1.3,1.7,0,1.7,0c0,0,0,0,0,0c0.2-1.2,0.8-2.7,1.8-4.1c0,0,0-0.1,0.1-0.1c0.3-0.3,0.5-0.7,0.8-1c0.1-0.1,0.2-0.2,0.3-0.3   c0.2-0.2,0.5-0.5,0.7-0.7c1.2-1.1,2.4-2.2,3.5-3.2c1.5-1.4,3.1-2.8,4.6-4.2c1.2-1.1,2.1-2.2,2.9-3.6C56,29.8,53.8,30.7,45.8,28.1z"
       id="path4"
       style="fill-opacity:1;fill:#384c62" /><path
       d="M45.8,52c0.4,0,0.8-0.2,1.1-0.5c0.3-0.3,0.5-0.7,0.5-1.1c0-0.1,0-0.2,0-0.3c0-0.1-0.1-0.2-0.1-0.3c0-0.1-0.1-0.2-0.2-0.3   c-0.1-0.1-0.1-0.2-0.2-0.2c-0.6-0.6-1.7-0.6-2.2,0c-0.1,0.1-0.1,0.2-0.2,0.2c-0.1,0.1-0.1,0.2-0.1,0.3c0,0.1-0.1,0.2-0.1,0.3   c0,0.1,0,0.2,0,0.3c0,0.4,0.2,0.8,0.5,1.1C45,51.8,45.4,52,45.8,52z"
       id="path6"
       style="fill-opacity:1;fill:#384c62" /><path
       d="M44.7,56.6c0.3,0.3,0.7,0.5,1.1,0.5c0.4,0,0.8-0.2,1.1-0.5c0.3-0.3,0.5-0.7,0.5-1.1c0-0.1,0-0.2,0-0.3   c0-0.1-0.1-0.2-0.1-0.3c0-0.1-0.1-0.2-0.2-0.3c-0.1-0.1-0.1-0.2-0.2-0.2c-0.6-0.6-1.7-0.6-2.2,0c-0.1,0.1-0.1,0.2-0.2,0.2   c-0.1,0.1-0.1,0.2-0.1,0.3c0,0.1-0.1,0.2-0.1,0.3c0,0.1,0,0.2,0,0.3C44.2,55.9,44.4,56.3,44.7,56.6z"
       id="path8"
       style="fill-opacity:1;fill:#384c62" /><path
       d="M29.6,76.1h32.4c0-9-7.3-16.2-16.2-16.2C36.9,59.9,29.6,67.2,29.6,76.1z"
       id="path10"
       style="fill-opacity:1;fill:#384c62" /></g></svg>