<?xml version="1.0" ?><svg id="Layer_1" style="enable-background:new 0 0 91 91;" version="1.1" viewBox="0 0 91 91" xml:space="preserve" xmlns="http://www.w3.org/2000/svg" xmlns:xlink="http://www.w3.org/1999/xlink"><g><path d="M63.1,35.5c4.8-4.3,7.2-10.2,7.3-18v-6.2h5.2V2.7H16v8.7h5.2v6.2c0.1,7.8,2.5,13.7,7.3,18c1.5,1.4,3,2.7,4.5,4.1   c1.2,1.1,2.3,2.1,3.5,3.2l0,0c0,0,0.1,0.1,0.1,0.1c0.2,0.2,0.5,0.5,0.7,0.7c0,0,0.1,0.1,0.1,0.1c0.2,0.2,0.3,0.4,0.5,0.7   c0,0,0,0.1,0.1,0.1c0.1,0.2,0.2,0.4,0.3,0.7c0,0,0,0.1,0,0.1c0.1,0.2,0.1,0.5,0.1,0.7c0,0.2,0,0.5-0.1,0.7c0,0,0,0.1,0,0.1   c-0.1,0.2-0.2,0.4-0.3,0.7c0,0,0,0.1-0.1,0.1c-0.1,0.2-0.3,0.4-0.4,0.6c0,0-0.1,0.1-0.1,0.1c-0.2,0.2-0.4,0.5-0.7,0.7   c0,0-0.1,0.1-0.1,0.1l0,0c-1.2,1.1-2.3,2.1-3.5,3.2c-1.5,1.4-3,2.8-4.5,4.1c-4.8,4.3-7.2,10.2-7.3,18v5.3H16v8.7h59.6v-8.7h-5.2   v-5.3c-0.1-7.8-2.5-13.7-7.3-18c-1.5-1.4-3-2.7-4.5-4.1c-1.2-1.1-2.3-2.1-3.5-3.2l0,0c-0.1,0-0.1-0.1-0.2-0.1   c-0.2-0.2-0.5-0.4-0.6-0.7c0-0.1-0.1-0.1-0.1-0.2c-0.2-0.2-0.3-0.4-0.4-0.6c0-0.1-0.1-0.1-0.1-0.2c-0.1-0.2-0.2-0.4-0.3-0.6   c0,0,0-0.1,0-0.1c-0.1-0.2-0.1-0.5-0.1-0.7c0-0.2,0-0.5,0.1-0.7c0,0,0-0.1,0-0.1c0.1-0.2,0.2-0.4,0.3-0.6c0,0,0-0.1,0.1-0.1   c0.1-0.2,0.3-0.4,0.5-0.6c0,0,0.1-0.1,0.1-0.1c0.2-0.2,0.4-0.5,0.7-0.7c0,0,0.1-0.1,0.1-0.1l0,0c1.2-1.1,2.3-2.1,3.5-3.2   C60.1,38.3,61.6,36.9,63.1,35.5z M52.8,40.6c-0.2,0.2-0.4,0.3-0.5,0.5c0,0,0,0-0.1,0.1c-1.3,1.3-2,2.7-2.2,4.1c0,0,0,0,0,0   c0,0.2,0,0.4,0,0.5c0,0.1,0,0.1,0,0.2c0,0,0,0,0,0s0,0,0,0c0,0.1,0,0.1,0,0.2c0,0.2,0,0.4,0,0.5c0,0,0,0,0,0   c0.2,1.4,0.9,2.8,2.2,4.1c0,0,0.1,0.1,0.1,0.1c0.2,0.2,0.3,0.3,0.5,0.5c1.2,1.1,2.4,2.2,3.6,3.3c1.5,1.4,3,2.8,4.6,4.1   c4.2,3.8,6.2,8.8,6.3,15.7v5.3H24.5v-5.3c0.1-6.9,2.1-11.9,6.3-15.7c1.5-1.4,3-2.8,4.6-4.1c1.2-1.1,2.4-2.2,3.6-3.3   c0.2-0.2,0.4-0.3,0.5-0.5c0,0,0,0,0.1-0.1c1.3-1.3,2-2.7,2.2-4.1c0,0,0,0,0,0c0-0.2,0-0.4,0-0.5c0-0.1,0-0.1,0-0.2c0,0,0,0,0,0   s0,0,0,0c0-0.1,0-0.1,0-0.2c0-0.2,0-0.4,0-0.5c0,0,0,0,0,0c-0.2-1.4-0.9-2.8-2.2-4.1c0,0-0.1-0.1-0.1-0.1c-0.2-0.2-0.3-0.3-0.5-0.5   c-1.2-1.1-2.4-2.2-3.6-3.3c-1.5-1.4-3-2.8-4.6-4.1c-4.2-3.8-6.2-8.8-6.3-15.7v-6.2h42.8v6.1c-0.1,6.9-2.1,11.9-6.3,15.7   c-1.5,1.4-3,2.8-4.6,4.1C55.2,38.4,54,39.5,52.8,40.6z"/><path d="M45.8,28.1c-6.1-2-11.2-0.4-14.2,1c0.4,0.5,0.9,1,1.4,1.5c1.5,1.4,3.1,2.8,4.6,4.2c1.2,1.1,2.4,2.2,3.5,3.2   c0.3,0.2,0.5,0.5,0.7,0.7c0.1,0.1,0.2,0.2,0.4,0.4c0.3,0.3,0.6,0.7,0.8,1c0,0,0.1,0.1,0.1,0.1c1.1,1.5,1.8,4.2,1.8,4.2   c1,1.3,1.7,0,1.7,0c0,0,0,0,0,0c0.2-1.2,0.8-2.7,1.8-4.1c0,0,0-0.1,0.1-0.1c0.3-0.3,0.5-0.7,0.8-1c0.1-0.1,0.2-0.2,0.3-0.3   c0.2-0.2,0.5-0.5,0.7-0.7c1.2-1.1,2.4-2.2,3.5-3.2c1.5-1.4,3.1-2.8,4.6-4.2c1.2-1.1,2.1-2.2,2.9-3.6C56,29.8,53.8,30.7,45.8,28.1z"/><path d="M45.8,52c0.4,0,0.8-0.2,1.1-0.5c0.3-0.3,0.5-0.7,0.5-1.1c0-0.1,0-0.2,0-0.3c0-0.1-0.1-0.2-0.1-0.3c0-0.1-0.1-0.2-0.2-0.3   c-0.1-0.1-0.1-0.2-0.2-0.2c-0.6-0.6-1.7-0.6-2.2,0c-0.1,0.1-0.1,0.2-0.2,0.2c-0.1,0.1-0.1,0.2-0.1,0.3c0,0.1-0.1,0.2-0.1,0.3   c0,0.1,0,0.2,0,0.3c0,0.4,0.2,0.8,0.5,1.1C45,51.8,45.4,52,45.8,52z"/><path d="M44.7,56.6c0.3,0.3,0.7,0.5,1.1,0.5c0.4,0,0.8-0.2,1.1-0.5c0.3-0.3,0.5-0.7,0.5-1.1c0-0.1,0-0.2,0-0.3   c0-0.1-0.1-0.2-0.1-0.3c0-0.1-0.1-0.2-0.2-0.3c-0.1-0.1-0.1-0.2-0.2-0.2c-0.6-0.6-1.7-0.6-2.2,0c-0.1,0.1-0.1,0.2-0.2,0.2   c-0.1,0.1-0.1,0.2-0.1,0.3c0,0.1-0.1,0.2-0.1,0.3c0,0.1,0,0.2,0,0.3C44.2,55.9,44.4,56.3,44.7,56.6z"/><path d="M29.6,76.1h32.4c0-9-7.3-16.2-16.2-16.2C36.9,59.9,29.6,67.2,29.6,76.1z"/></g></svg>