<?xml version="1.0" encoding="UTF-8"?>
<svg width="1024px" height="1024px" viewBox="0 0 1024 1024" version="1.1" xmlns="http://www.w3.org/2000/svg" xmlns:xlink="http://www.w3.org/1999/xlink">
    <!-- Generator: Sketch 47.1 (45422) - http://www.bohemiancoding.com/sketch -->
    <title>merit1024</title>
    <desc>Created with Sketch.</desc>
    <defs>
        <linearGradient x1="99.5342339%" y1="6.15826834e-15%" x2="2.24253319%" y2="99.0453603%" id="linearGradient-1">
            <stop stop-color="#00B0DD" offset="0%"></stop>
            <stop stop-color="#2888C3" offset="100%"></stop>
        </linearGradient>
    </defs>
    <g id="ICONS" stroke="none" stroke-width="1" fill="none" fill-rule="evenodd">
        <g id="merit1024">
            <g id="grid">
                <rect id="mask" fill="url(#linearGradient-1)" x="0" y="0" width="1024" height="1024" rx="160"></rect>
                <path d="M543.959331,632.364014 C570.575432,603.475699 550.253127,556 510.502393,556 C470.74038,556 450.429353,603.47852 477.039815,632.364014 C491.680221,648.254139 498.941209,666.847165 498.941209,688.45909 C498.941209,710.130264 491.719699,728.700719 477.039815,744.633165 C450.426534,773.527123 470.743199,821 510.502393,821 C550.253127,821 570.575432,773.524301 543.959331,744.633165 C529.318925,728.74304 522.057937,710.152835 522.057937,688.538089 C522.057937,666.869736 529.279447,648.293639 543.959331,632.364014 M330.49859,357 C355.62956,357 376,336.630191 376,311.5 C376,286.375449 355.62956,266 330.49859,266 C305.36762,266 285,286.375449 285,311.5 C285,336.630191 305.36762,357 330.49859,357 M721.958046,516.364827 C748.576173,487.476204 728.254473,440 688.496466,440 C648.741278,440 628.425218,487.479026 655.043345,516.364827 C669.680495,532.255121 676.941266,550.845524 676.941266,572.4605 C676.941266,594.131905 669.719971,612.702557 655.043345,628.635173 C628.425218,657.526617 648.744098,705 688.496466,705 C728.254473,705 748.576173,657.523796 721.958046,628.635173 C707.312436,612.744879 700.057305,594.154476 700.057305,572.5395 C700.057305,550.870917 707.2786,532.294621 721.958046,516.364827 M688.49859,357 C713.628002,357 734,336.630191 734,311.5 C734,286.375449 713.628002,266 688.49859,266 C663.374818,266 643,286.375449 643,311.5 C643,336.630191 663.374818,357 688.49859,357 M363.956159,516.364827 C390.575382,487.476204 370.258486,440 330.50166,440 C290.742015,440 270.427938,487.479026 297.038702,516.364827 C311.684915,532.255121 318.940345,550.845524 318.940345,572.4605 C318.940345,594.131905 311.721573,612.702557 297.041522,628.635173 C270.425119,657.526617 290.744835,705 330.50166,705 C370.258486,705 390.575382,657.523796 363.956159,628.635173 C349.318406,612.744879 342.057336,594.154476 342.057336,572.5395 C342.057336,550.870917 349.278928,532.294621 363.956159,516.364827 M510.49859,475 C535.62956,475 556,454.628002 556,429.49859 C556,404.371998 535.62956,384 510.49859,384 C485.36762,384 465,404.371998 465,429.49859 C465,454.628002 485.36762,475 510.49859,475" id="Fill-6-Copy" fill="#FFFFFF"></path>
            </g>
        </g>
    </g>
</svg>