<?xml version="1.0" encoding="UTF-8"?>
<svg width="98px" height="98px" viewBox="0 0 98 98" version="1.1" xmlns="http://www.w3.org/2000/svg" xmlns:xlink="http://www.w3.org/1999/xlink">
    <!-- Generator: sketchtool 46.2 (44496) - http://www.bohemiancoding.com/sketch -->
    <title>E643FDF3-FAE1-4B95-B83D-AD9EC52D8A6F</title>
    <desc>Created with sketchtool.</desc>
    <defs></defs>
    <g id="Page-1" stroke="none" stroke-width="1" fill="none" fill-rule="evenodd">
        <g id="index-v.2" transform="translate(-380.000000, -1205.000000)">
            <g id="safety" transform="translate(380.000000, 1205.000000)">
                <circle id="Oval-18" fill="#51B3EF" cx="49" cy="49" r="49"></circle>
                <path d="M61.6,38.6051498 L61.6,26.6 C61.6,20.4144108 56.5855892,15.4 50.4,15.4 L50.4,15.4 L47.6,15.4 L47.6,15.4 C41.4144108,15.4 36.4,20.4144108 36.4,26.6 L36.4,26.6 L36.4,38.6051498 C38.5308519,37.2728537 40.8877352,36.2684416 43.4,35.6625633 L43.4,28 C43.4,24.9072054 45.9072054,22.4 49,22.4 L49,22.4 L49,22.4 C52.0927946,22.4 54.6,24.9072054 54.6,28 L54.6,35.6625633 C57.1122648,36.2684416 59.4691481,37.2728537 61.6,38.6051498 Z" id="Combined-Shape" fill="#FFFFFF"></path>
                <circle id="Oval-18-Copy-3" fill="#95A4B7" cx="49" cy="58.8" r="14.8"></circle>
                <path d="M49,82.6 C35.855623,82.6 25.2,71.944377 25.2,58.8 C25.2,45.655623 35.855623,35 49,35 C62.144377,35 72.8,45.655623 72.8,58.8 C72.8,71.944377 62.144377,82.6 49,82.6 Z M49,72.8 C56.7319865,72.8 63,66.5319865 63,58.8 C63,51.0680135 56.7319865,44.8 49,44.8 C41.2680135,44.8 35,51.0680135 35,58.8 C35,66.5319865 41.2680135,72.8 49,72.8 Z" id="Combined-Shape" fill="#384C62"></path>
                <circle id="Oval-18-Copy-2" fill="#FFFFFF" cx="49" cy="58.8" r="8.4"></circle>
            </g>
        </g>
    </g>
</svg>